<svg viewBox="342.5 257.9589 380 102.0793" width="5000" height="1343.1486842105262" xmlns="http://www.w3.org/2000/svg" xmlns:xlink="http://www.w3.org/1999/xlink" preserveAspectRatio="none"><defs></defs><style>.a6izo4zJpcolor {fill:#D03737;fill-opacity:1;}.a6izo4zJpstrokeColor-str {stroke:#B2B2B2;stroke-opacity:1;}.aD6z1nYkhcolor {fill:#D03737;fill-opacity:1;}.aD6z1nYkhstrokeColor-str {stroke:#B2B2B2;stroke-opacity:1;}.aLgOaV3zRcolors-0 {fill:#D03737;fill-opacity:1;}.aR9TavoXYfillColor {fill:#F7F7F7;fill-opacity:1;}.aR9TavoXYstrokeColor-str {stroke:#0C1248;stroke-opacity:1;}.awOjYg2wSJ0filter-floo {flood-color:#D03737;flood-opacity:0.5;}.aYLqQhLpe-fillColor {fill:#F7F7F7;fill-opacity:1;}.aYLqQhLpe-strokeColor-str {stroke:#0C1248;stroke-opacity:1;}</style><defs>
      <filter
        x="-1000"
        y="-1000"
        width="5000"
        height="5000"
        id="wOjYg2wSJ"
        filterUnits="userSpaceOnUse"
        primitiveUnits="userSpaceOnUse"
        color-interpolation-filters="sRGB">
        <feMerge><feMergeNode in="SourceGraphic" /></feMerge>
      </filter></defs><g opacity="1" transform="rotate(0 359.4306 338.3192)">
<svg width="346.1388" height="21.719" x="359.4306" y="338.3192" version="1.1" preserveAspectRatio="none" viewBox="0 -33.5156 698.1641 43.8086">
  <g transform="matrix(1 0 0 1 0 0)" class="a6izo4zJpcolor"><path id="id-6izo4zJp32" d="M25.35-29.28L25.35-29.28Q25.35-27.27 24.92-24.91Q24.49-22.56 23.73-20.07Q22.97-17.58 21.89-15.07Q20.82-12.56 19.53-10.24Q18.24-7.93 16.79-5.92Q15.33-3.91 13.78-2.42Q12.23-0.94 10.63-0.09Q9.02 0.76 7.46 0.76L7.46 0.76Q6.46 0.76 5.54 0.40Q4.61 0.04 3.90-0.63Q3.18-1.31 2.75-2.28Q2.32-3.24 2.32-4.47L2.32-4.47Q2.32-5.55 2.66-6.92Q2.99-8.30 3.53-9.86Q4.06-11.43 4.76-13.12Q5.45-14.80 6.18-16.53Q6.91-18.26 7.61-19.94Q8.30-21.62 8.84-23.16Q9.38-24.71 9.71-26.04Q10.04-27.38 10.04-28.42L10.04-28.42Q10.04-28.89 9.95-29.31Q9.86-29.73 9.67-30.03Q9.47-30.33 9.13-30.51Q8.79-30.68 8.30-30.68L8.30-30.68Q7.46-30.68 6.51-30.13Q5.57-29.57 4.57-28.42Q3.57-27.27 2.55-25.50Q1.52-23.73 0.53-21.33L0.53-21.33L0-21.68Q1.11-24.39 2.22-26.26Q3.32-28.13 4.45-29.27Q5.59-30.41 6.74-30.92Q7.89-31.43 9.08-31.43L9.08-31.43Q10.86-31.43 11.85-30.47Q12.83-29.51 12.83-27.79L12.83-27.79Q12.83-26.78 12.50-25.40Q12.17-24.02 11.61-22.42Q11.05-20.82 10.35-19.04Q9.65-17.27 8.92-15.46Q8.18-13.65 7.48-11.89Q6.78-10.14 6.22-8.56Q5.66-6.99 5.33-5.65Q5-4.32 5-3.38L5-3.38Q5-2.68 5.20-2.10Q5.39-1.52 5.77-1.09Q6.15-0.66 6.68-0.43Q7.21-0.20 7.89-0.20L7.89-0.20Q9.12-0.20 10.46-0.97Q11.80-1.74 13.15-3.08Q14.51-4.41 15.84-6.23Q17.17-8.05 18.37-10.14Q19.57-12.23 20.59-14.51Q21.60-16.80 22.35-19.05Q23.11-21.31 23.53-23.46Q23.95-25.61 23.95-27.44L23.95-27.44Q23.95-28.71 23.77-29.60Q23.59-30.49 23.38-31.09Q23.16-31.70 22.99-32.07Q22.81-32.44 22.81-32.68L22.81-32.68Q22.81-32.93 23.05-33.22Q23.28-33.52 23.75-33.52L23.75-33.52Q24.22-33.52 24.52-33.15Q24.82-32.79 25.01-32.20Q25.20-31.60 25.27-30.84Q25.35-30.08 25.35-29.28Z M27.71-11.35L27.71-11.35Q28.40-13.96 29.72-16.19Q31.04-18.42 32.74-20.05Q34.45-21.68 36.46-22.60Q38.46-23.52 40.49-23.52L40.49-23.52Q42.13-23.52 43.25-22.96Q44.38-22.40 45.06-21.46Q45.74-20.53 46.04-19.30Q46.33-18.07 46.33-16.72L46.33-16.72Q46.33-15.25 46.04-13.79Q45.76-12.32 45.31-11.00L45.31-11.00Q44.47-8.54 43.14-6.46Q41.82-4.38 40.19-2.85Q38.55-1.33 36.72-0.48Q34.88 0.37 33.05 0.37L33.05 0.37Q31.66 0.37 30.56-0.13Q29.45-0.63 28.69-1.56Q27.93-2.50 27.52-3.86Q27.11-5.21 27.11-6.91L27.11-6.91Q27.11-7.99 27.27-9.11Q27.42-10.23 27.71-11.35ZM33.34-0.61L33.34-0.61Q34.75-0.61 36.20-1.41Q37.66-2.21 39.01-3.64Q40.37-5.08 41.54-7.07Q42.71-9.06 43.55-11.45L43.55-11.45Q43.79-12.09 44.01-12.89Q44.24-13.69 44.43-14.56Q44.63-15.43 44.75-16.34Q44.86-17.25 44.86-18.11L44.86-18.11Q44.86-19.04 44.69-19.89Q44.51-20.74 44.09-21.37Q43.67-21.99 42.96-22.36Q42.25-22.73 41.19-22.73L41.19-22.73Q39.67-22.73 38.17-21.92Q36.68-21.11 35.34-19.64Q34.00-18.16 32.91-16.11Q31.82-14.06 31.09-11.58L31.09-11.58Q30.61-9.92 30.34-8.25Q30.08-6.58 30.08-5.21L30.08-5.21Q30.08-0.61 33.34-0.61Z M50.21-22.36L50.21-23.14L55.92-23.14L57.77-28.26L60.66-28.26L58.81-23.14L64.67-23.14L64.67-22.36L58.52-22.36L53.83-9.47Q53.55-8.71 53.29-7.91Q53.03-7.11 52.82-6.34Q52.62-5.57 52.49-4.85Q52.36-4.14 52.36-3.55L52.36-3.55Q52.36-2.21 53.10-1.41Q53.83-0.61 55.31-0.61L55.31-0.61Q56.76-0.61 58.13-1.15Q59.49-1.70 60.82-2.83Q62.15-3.96 63.46-5.69Q64.77-7.42 66.09-9.79L66.09-9.79L67.11-11.58L67.64-11.21L66.62-9.41Q65.08-6.68 63.63-4.81Q62.19-2.95 60.77-1.80Q59.36-0.64 57.90-0.14Q56.45 0.37 54.88 0.37L54.88 0.37Q53.69 0.37 52.77 0.01Q51.86-0.35 51.24-1.02Q50.63-1.68 50.30-2.62Q49.98-3.55 49.98-4.71L49.98-4.71Q49.98-5.72 50.21-6.93Q50.45-8.14 50.94-9.47L50.94-9.47L55.63-22.36L50.21-22.36Z M81.70-21.76L81.70-21.76Q81.70-22.07 81.30-22.39Q80.90-22.71 80.14-22.71L80.14-22.71Q79.36-22.71 78.44-22.24Q77.52-21.76 76.35-20.55Q75.18-19.34 73.72-17.25Q72.27-15.16 70.43-11.91L70.43-11.91L69.45-10.20L65.76 0L62.85 0L71.29-23.14L74.18-23.14L70.76-13.77Q72.36-16.52 73.69-18.39Q75.02-20.25 76.15-21.40Q77.29-22.54 78.28-23.03Q79.28-23.52 80.23-23.52L80.23-23.52Q81.52-23.52 82.26-22.75Q82.99-21.99 82.99-20.76L82.99-20.76Q82.99-20.25 82.86-19.79Q82.73-19.34 82.49-19.00Q82.25-18.67 81.89-18.48Q81.54-18.28 81.11-18.28L81.11-18.28Q80.80-18.28 80.50-18.38Q80.20-18.48 79.96-18.68Q79.73-18.89 79.58-19.18Q79.43-19.47 79.43-19.86L79.43-19.86Q79.43-20.18 79.54-20.50Q79.65-20.82 79.84-21.06Q80.04-21.31 80.31-21.46Q80.59-21.62 80.92-21.62L80.92-21.62Q81.13-21.62 81.33-21.58L81.33-21.58Q81.37-21.54 81.44-21.51Q81.50-21.48 81.54-21.48L81.54-21.48Q81.70-21.48 81.70-21.76Z M91.97 0.37L91.97 0.37Q88.44 0.37 86.52-1.47Q84.61-3.32 84.61-6.97L84.61-6.97Q84.61-7.97 84.76-9.08Q84.90-10.20 85.21-11.37L85.21-11.37Q85.92-13.98 87.20-16.21Q88.48-18.44 90.14-20.06Q91.80-21.68 93.71-22.60Q95.63-23.52 97.56-23.52L97.56-23.52Q99.51-23.52 100.63-22.60Q101.76-21.68 101.76-20.02L101.76-20.02Q101.76-19.08 101.39-18.18Q101.02-17.29 100.31-16.48Q99.61-15.68 98.62-14.99Q97.64-14.30 96.41-13.79L96.41-13.79Q94.88-13.14 93.05-12.82Q91.21-12.50 88.87-12.50L88.87-12.50Q88.30-10.92 87.98-9.21Q87.66-7.50 87.66-5.72L87.66-5.72Q87.66-3.01 88.80-1.81Q89.94-0.61 92.40-0.61L92.40-0.61Q94.45-0.61 96.31-1.40Q98.16-2.19 99.75-3.48Q101.33-4.77 102.64-6.42Q103.95-8.07 104.92-9.79L104.92-9.79L105.94-11.58L106.46-11.21L105.45-9.41Q104.24-7.29 102.80-5.49Q101.37-3.69 99.68-2.39Q97.99-1.09 96.06-0.36Q94.14 0.37 91.97 0.37ZM98.11-22.73L98.11-22.73Q96.88-22.73 95.60-22.01Q94.32-21.29 93.13-20.01Q91.93-18.73 90.90-16.99Q89.86-15.25 89.10-13.20L89.10-13.20Q91.25-13.24 92.77-13.58Q94.30-13.93 95.43-14.45L95.43-14.45Q96.33-14.86 97.18-15.52Q98.03-16.17 98.68-17.01Q99.34-17.85 99.74-18.83Q100.14-19.80 100.14-20.86L100.14-20.86Q100.14-21.39 99.98-21.74Q99.82-22.09 99.55-22.31Q99.28-22.54 98.91-22.64Q98.54-22.73 98.11-22.73Z M145.35-21.76L144.69-22.07Q145.43-23.18 145.78-24.16Q146.13-25.14 146.13-26.15L146.13-26.15Q146.13-27.21 145.79-28.05Q145.45-28.89 144.80-29.49Q144.16-30.10 143.23-30.42Q142.30-30.74 141.15-30.74L141.15-30.74Q139.79-30.74 138.66-30.29Q137.54-29.84 136.75-29.02Q135.96-28.20 135.53-27.05Q135.10-25.90 135.10-24.49L135.10-24.49Q135.10-23.09 135.49-21.75Q135.88-20.41 136.46-19.09Q137.05-17.77 137.74-16.48Q138.44-15.20 139.02-13.91Q139.61-12.62 140-11.31Q140.39-10 140.39-8.65L140.39-8.65Q140.39-7.29 139.96-6.04Q139.53-4.80 138.76-3.77Q137.99-2.73 136.93-1.89Q135.88-1.05 134.64-0.47Q133.40 0.12 132.01 0.43Q130.63 0.74 129.20 0.74L129.20 0.74Q127.03 0.74 125.39 0.06Q123.75-0.63 122.64-1.76Q121.52-2.89 120.97-4.37Q120.41-5.84 120.41-7.42L120.41-7.42Q120.41-8.42 120.63-9.34Q120.84-10.25 121.22-10.96Q121.60-11.66 122.12-12.07Q122.64-12.48 123.24-12.48L123.24-12.48Q123.77-12.48 124.07-12.19Q124.38-11.89 124.38-11.39L124.38-11.39Q124.38-10.98 124.17-10.71Q123.96-10.45 123.67-10.27Q123.38-10.10 123.05-9.98Q122.71-9.86 122.46-9.75L122.46-9.75Q121.95-9.51 121.61-8.95Q121.27-8.38 121.27-7.19L121.27-7.19Q121.27-5.98 121.72-4.73Q122.17-3.48 123.10-2.46Q124.02-1.45 125.45-0.81Q126.88-0.18 128.83-0.18L128.83-0.18Q130.53-0.18 132.04-0.69Q133.55-1.21 134.70-2.22Q135.84-3.22 136.50-4.74Q137.17-6.25 137.17-8.24L137.17-8.24Q137.17-9.75 136.81-11.02Q136.45-12.29 135.91-13.44Q135.37-14.59 134.74-15.67Q134.10-16.76 133.56-17.89Q133.03-19.02 132.67-20.24Q132.30-21.46 132.30-22.91L132.30-22.91Q132.30-24.75 132.94-26.30Q133.57-27.85 134.75-28.98Q135.92-30.12 137.57-30.75Q139.22-31.39 141.25-31.39L141.25-31.39Q142.71-31.39 143.90-31.04Q145.08-30.70 145.91-30.06Q146.74-29.41 147.18-28.50Q147.62-27.58 147.62-26.43L147.62-26.43Q147.62-25.16 147.07-24.03Q146.52-22.91 145.35-21.76L145.35-21.76Z M155.47 0.37L155.47 0.37Q151.93 0.37 150.02-1.47Q148.11-3.32 148.11-6.97L148.11-6.97Q148.11-7.97 148.25-9.08Q148.40-10.20 148.71-11.37L148.71-11.37Q149.41-13.98 150.69-16.21Q151.97-18.44 153.63-20.06Q155.29-21.68 157.21-22.60Q159.12-23.52 161.05-23.52L161.05-23.52Q163.01-23.52 164.13-22.60Q165.25-21.68 165.25-20.02L165.25-20.02Q165.25-19.08 164.88-18.18Q164.51-17.29 163.81-16.48Q163.11-15.68 162.12-14.99Q161.13-14.30 159.90-13.79L159.90-13.79Q158.38-13.14 156.54-12.82Q154.71-12.50 152.36-12.50L152.36-12.50Q151.80-10.92 151.47-9.21Q151.15-7.50 151.15-5.72L151.15-5.72Q151.15-3.01 152.29-1.81Q153.44-0.61 155.90-0.61L155.90-0.61Q157.95-0.61 159.80-1.40Q161.66-2.19 163.24-3.48Q164.82-4.77 166.13-6.42Q167.44-8.07 168.42-9.79L168.42-9.79L169.43-11.58L169.96-11.21L168.95-9.41Q167.73-7.29 166.30-5.49Q164.86-3.69 163.17-2.39Q161.48-1.09 159.56-0.36Q157.64 0.37 155.47 0.37ZM161.60-22.73L161.60-22.73Q160.37-22.73 159.09-22.01Q157.81-21.29 156.62-20.01Q155.43-18.73 154.39-16.99Q153.36-15.25 152.60-13.20L152.60-13.20Q154.75-13.24 156.27-13.58Q157.79-13.93 158.93-14.45L158.93-14.45Q159.82-14.86 160.67-15.52Q161.52-16.17 162.18-17.01Q162.83-17.85 163.23-18.83Q163.63-19.80 163.63-20.86L163.63-20.86Q163.63-21.39 163.48-21.74Q163.32-22.09 163.05-22.31Q162.77-22.54 162.40-22.64Q162.03-22.73 161.60-22.73Z M184.02-21.76L184.02-21.76Q184.02-22.07 183.62-22.39Q183.22-22.71 182.46-22.71L182.46-22.71Q181.68-22.71 180.76-22.24Q179.84-21.76 178.67-20.55Q177.50-19.34 176.04-17.25Q174.59-15.16 172.75-11.91L172.75-11.91L171.78-10.20L168.09 0L165.18 0L173.61-23.14L176.50-23.14L173.09-13.77Q174.69-16.52 176.02-18.39Q177.34-20.25 178.48-21.40Q179.61-22.54 180.61-23.03Q181.60-23.52 182.56-23.52L182.56-23.52Q183.85-23.52 184.58-22.75Q185.31-21.99 185.31-20.76L185.31-20.76Q185.31-20.25 185.19-19.79Q185.06-19.34 184.81-19.00Q184.57-18.67 184.22-18.48Q183.87-18.28 183.44-18.28L183.44-18.28Q183.13-18.28 182.82-18.38Q182.52-18.48 182.29-18.68Q182.05-18.89 181.90-19.18Q181.76-19.47 181.76-19.86L181.76-19.86Q181.76-20.18 181.87-20.50Q181.97-20.82 182.17-21.06Q182.36-21.31 182.64-21.46Q182.91-21.62 183.24-21.62L183.24-21.62Q183.46-21.62 183.65-21.58L183.65-21.58Q183.69-21.54 183.76-21.51Q183.83-21.48 183.87-21.48L183.87-21.48Q184.02-21.48 184.02-21.76Z M194.69-23.14L189.73-9.47Q188.96-7.36 188.60-5.94Q188.24-4.51 188.24-3.55L188.24-3.55Q188.24-2.15 188.98-1.38Q189.73-0.61 191.15-0.61L191.15-0.61Q192.48-0.61 193.87-1.30Q195.25-1.99 196.56-3.22Q197.87-4.45 199.00-6.12Q200.14-7.79 200.98-9.73L200.98-9.73Q201.76-11.54 202.18-13.47Q202.60-15.39 202.60-17.44L202.60-17.44Q202.60-18.93 202.41-19.81Q202.23-20.70 201.99-21.23Q201.76-21.76 201.57-22.04Q201.39-22.32 201.39-22.60L201.39-22.60Q201.39-22.95 201.69-23.22Q201.99-23.50 202.38-23.50L202.38-23.50Q202.81-23.50 203.12-23.14Q203.42-22.79 203.61-22.19Q203.81-21.58 203.91-20.76Q204.00-19.94 204.00-19.02L204.00-19.02Q204.00-17.70 203.82-16.39Q203.63-15.08 203.33-13.85Q203.03-12.62 202.62-11.48Q202.21-10.35 201.76-9.36L201.76-9.36Q200.78-7.23 199.51-5.44Q198.24-3.65 196.79-2.36Q195.33-1.07 193.77-0.35Q192.21 0.37 190.63 0.37L190.63 0.37Q189.51 0.37 188.63 0.01Q187.75-0.35 187.14-1.02Q186.52-1.68 186.20-2.62Q185.88-3.55 185.88-4.71L185.88-4.71Q185.88-5.70 186.12-6.92Q186.37-8.14 186.84-9.47L186.84-9.47L191.80-23.14L194.69-23.14Z M208.77-9.47L213.75-23.14L216.64-23.14L211.66-9.47Q211.39-8.71 211.11-7.92Q210.84-7.13 210.63-6.36Q210.43-5.59 210.30-4.87Q210.18-4.16 210.18-3.55L210.18-3.55Q210.18-2.21 210.89-1.41Q211.60-0.61 213.11-0.61L213.11-0.61Q214.41-0.61 215.63-1.17Q216.86-1.74 218.06-2.88Q219.26-4.02 220.47-5.75Q221.68-7.48 222.99-9.79L222.99-9.79L224.00-11.58L224.53-11.21L223.52-9.41Q222.09-6.89 220.79-5.05Q219.49-3.20 218.19-2.00Q216.89-0.80 215.55-0.21Q214.20 0.37 212.68 0.37L212.68 0.37Q211.48 0.37 210.58 0.01Q209.67-0.35 209.05-1.02Q208.44-1.68 208.13-2.62Q207.81-3.55 207.81-4.71L207.81-4.71Q207.81-5.72 208.06-6.93Q208.30-8.14 208.77-9.47L208.77-9.47ZM215.31-28.26L215.31-28.26Q215.31-28.95 215.79-29.43Q216.27-29.92 216.95-29.92L216.95-29.92Q217.64-29.92 218.12-29.44Q218.59-28.96 218.59-28.28L218.59-28.28Q218.59-27.95 218.47-27.65Q218.34-27.34 218.12-27.13Q217.89-26.91 217.59-26.79Q217.29-26.66 216.93-26.66L216.93-26.66Q216.25-26.66 215.78-27.12Q215.31-27.58 215.31-28.26Z M238.67-18.46L238.67-18.46Q238.01-18.46 237.63-18.84Q237.25-19.22 237.25-19.88L237.25-19.88Q237.25-20.51 237.58-20.90Q237.91-21.29 238.46-21.29L238.46-21.29Q238.65-21.29 238.83-21.21L238.83-21.21Q238.93-21.17 238.96-21.16Q239.00-21.15 239.04-21.15L239.04-21.15Q239.22-21.15 239.22-21.41L239.22-21.41Q239.22-21.66 239.02-21.90Q238.83-22.15 238.50-22.33Q238.16-22.52 237.72-22.63Q237.29-22.73 236.82-22.73L236.82-22.73Q235.61-22.73 234.37-22.03Q233.13-21.33 231.96-20.11Q230.80-18.89 229.78-17.25Q228.75-15.61 227.99-13.74Q227.23-11.88 226.79-9.88Q226.35-7.89 226.35-5.98L226.35-5.98Q226.35-4.53 226.61-3.52Q226.88-2.50 227.43-1.86Q227.99-1.21 228.87-0.91Q229.75-0.61 230.98-0.61L230.98-0.61Q232.79-0.61 234.52-1.21Q236.25-1.82 237.86-2.98Q239.47-4.14 240.93-5.85Q242.38-7.56 243.63-9.79L243.63-9.79L244.65-11.58L245.18-11.21L244.16-9.41Q241.37-4.45 237.99-2.04Q234.61 0.37 230.61 0.37L230.61 0.37Q226.97 0.37 225.15-1.50Q223.32-3.38 223.32-6.95L223.32-6.95Q223.32-8.01 223.48-9.12Q223.63-10.23 223.93-11.37L223.93-11.37Q224.63-13.98 225.91-16.21Q227.19-18.44 228.84-20.06Q230.49-21.68 232.41-22.60Q234.34-23.52 236.33-23.52L236.33-23.52Q238.42-23.52 239.51-22.42L239.51-22.42Q239.96-21.97 240.20-21.44Q240.43-20.90 240.43-20.33L240.43-20.33Q240.43-19.47 239.95-18.96Q239.47-18.46 238.67-18.46Z M251.33 0.37L251.33 0.37Q247.79 0.37 245.88-1.47Q243.96-3.32 243.96-6.97L243.96-6.97Q243.96-7.97 244.11-9.08Q244.26-10.20 244.57-11.37L244.57-11.37Q245.27-13.98 246.55-16.21Q247.83-18.44 249.49-20.06Q251.15-21.68 253.07-22.60Q254.98-23.52 256.91-23.52L256.91-23.52Q258.87-23.52 259.99-22.60Q261.11-21.68 261.11-20.02L261.11-20.02Q261.11-19.08 260.74-18.18Q260.37-17.29 259.67-16.48Q258.96-15.68 257.98-14.99Q256.99-14.30 255.76-13.79L255.76-13.79Q254.24-13.14 252.40-12.82Q250.57-12.50 248.22-12.50L248.22-12.50Q247.66-10.92 247.33-9.21Q247.01-7.50 247.01-5.72L247.01-5.72Q247.01-3.01 248.15-1.81Q249.30-0.61 251.76-0.61L251.76-0.61Q253.81-0.61 255.66-1.40Q257.52-2.19 259.10-3.48Q260.68-4.77 261.99-6.42Q263.30-8.07 264.28-9.79L264.28-9.79L265.29-11.58L265.82-11.21L264.80-9.41Q263.59-7.29 262.16-5.49Q260.72-3.69 259.03-2.39Q257.34-1.09 255.42-0.36Q253.50 0.37 251.33 0.37ZM257.46-22.73L257.46-22.73Q256.23-22.73 254.95-22.01Q253.67-21.29 252.48-20.01Q251.29-18.73 250.25-16.99Q249.22-15.25 248.46-13.20L248.46-13.20Q250.61-13.24 252.13-13.58Q253.65-13.93 254.79-14.45L254.79-14.45Q255.68-14.86 256.53-15.52Q257.38-16.17 258.04-17.01Q258.69-17.85 259.09-18.83Q259.49-19.80 259.49-20.86L259.49-20.86Q259.49-21.39 259.34-21.74Q259.18-22.09 258.91-22.31Q258.63-22.54 258.26-22.64Q257.89-22.73 257.46-22.73Z M303.83-11.89L303.83-11.89Q302.70-8.71 301.56-6.04Q300.43-3.36 299.22-1.11L299.22-1.11Q301.11-1.27 302.63-1.54Q304.14-1.82 305.37-2.28Q306.60-2.73 307.60-3.40Q308.59-4.06 309.46-4.98Q310.33-5.90 311.14-7.09Q311.95-8.28 312.81-9.79L312.81-9.79L313.83-11.58L314.36-11.21L313.34-9.41Q312.36-7.70 311.42-6.40Q310.47-5.10 309.47-4.15Q308.48-3.20 307.37-2.56Q306.27-1.91 304.98-1.47Q303.69-1.04 302.16-0.77Q300.63-0.51 298.79-0.31L298.79-0.31Q297.29 2.36 295.70 4.35Q294.12 6.33 292.37 7.65Q290.63 8.96 288.71 9.62Q286.80 10.27 284.65 10.27L284.65 10.27Q282.30 10.27 281.04 9.15Q279.79 8.03 279.79 5.94L279.79 5.94Q279.79 4.53 280.69 3.45Q281.60 2.36 283.56 1.54Q285.53 0.72 288.62 0.15Q291.72-0.43 296.11-0.84L296.11-0.84Q296.91-2.52 297.72-4.51Q298.54-6.50 299.47-8.95L299.47-8.95Q300.78-12.40 301.74-14.86Q302.70-17.32 303.43-19.10Q304.16-20.88 304.76-22.13Q305.35-23.38 305.94-24.41L305.94-24.41Q306.88-26.04 307.99-27.35Q309.10-28.67 310.57-29.65L310.57-29.65Q309.28-29.26 307.94-29.04Q306.60-28.83 305.55-28.83L305.55-28.83Q304.51-28.83 303.49-29.02Q302.46-29.22 301.51-29.45Q300.57-29.69 299.75-29.88Q298.93-30.08 298.32-30.08L298.32-30.08Q297.58-30.08 296.90-29.76Q296.23-29.43 295.72-28.84Q295.21-28.24 294.92-27.41Q294.63-26.58 294.63-25.59L294.63-25.59Q294.63-24.39 295.02-23.57L295.02-23.57L294.34-23.18Q294.10-23.63 293.96-24.22Q293.81-24.80 293.81-25.51L293.81-25.51Q293.81-26.89 294.32-28.00Q294.82-29.10 295.72-29.86Q296.62-30.63 297.85-31.04Q299.08-31.45 300.53-31.45L300.53-31.45Q301.23-31.45 301.75-31.36Q302.27-31.27 302.73-31.13Q303.20-31.00 303.70-30.85Q304.20-30.70 304.86-30.57Q305.53-30.43 306.43-30.34Q307.32-30.25 308.61-30.25L308.61-30.25Q309.61-30.25 310.35-30.32Q311.09-30.39 311.76-30.54Q312.42-30.68 313.08-30.90Q313.73-31.11 314.55-31.43L314.55-31.43L314.55-31.07Q313.98-30.90 313.43-30.63Q312.87-30.37 312.31-29.98Q311.76-29.59 311.22-29.01Q310.68-28.44 310.16-27.66L310.16-27.66Q309.57-26.78 308.99-25.56Q308.42-24.34 307.71-22.51Q306.99-20.68 306.05-18.11Q305.12-15.53 303.83-11.89ZM284.77 9.32L284.77 9.32Q286.48 9.32 287.93 8.88Q289.38 8.44 290.66 7.36Q291.95 6.29 293.18 4.49Q294.41 2.70 295.74-0.04L295.74-0.04Q293.73 0.14 291.84 0.38Q289.94 0.63 288.28 0.97Q286.62 1.31 285.23 1.76Q283.85 2.21 282.85 2.81Q281.86 3.42 281.31 4.19Q280.76 4.96 280.76 5.92L280.76 5.92Q280.76 7.64 281.83 8.48Q282.89 9.32 284.77 9.32Z M313.05-9.47L318.03-23.14L320.92-23.14L315.94-9.47Q315.66-8.71 315.39-7.92Q315.12-7.13 314.91-6.36Q314.71-5.59 314.58-4.87Q314.45-4.16 314.45-3.55L314.45-3.55Q314.45-2.21 315.18-1.41Q315.90-0.61 317.38-0.61L317.38-0.61Q318.69-0.61 319.92-1.17Q321.15-1.74 322.35-2.88Q323.55-4.02 324.77-5.74Q325.98-7.46 327.27-9.79L327.27-9.79L328.22-11.50L332.48-23.14L335.37-23.14L330.39-9.47Q330.12-8.71 329.84-7.92Q329.57-7.13 329.37-6.36Q329.16-5.59 329.03-4.87Q328.91-4.16 328.91-3.55L328.91-3.55Q328.91-2.21 329.62-1.41Q330.33-0.61 331.84-0.61L331.84-0.61Q333.14-0.61 334.37-1.17Q335.59-1.74 336.79-2.88Q337.99-4.02 339.20-5.75Q340.41-7.48 341.72-9.79L341.72-9.79L342.73-11.58L343.24-11.21L342.25-9.41Q340.84-6.88 339.54-5.03Q338.24-3.18 336.94-1.98Q335.64-0.78 334.29-0.21Q332.93 0.37 331.41 0.37L331.41 0.37Q330.21 0.37 329.31 0.01Q328.40-0.35 327.78-1.02Q327.17-1.68 326.86-2.62Q326.54-3.55 326.54-4.71L326.54-4.71Q326.54-5.47 326.68-6.36Q326.82-7.25 327.09-8.18L327.09-8.18Q325.78-5.98 324.57-4.37Q323.36-2.75 322.15-1.70Q320.94-0.64 319.66-0.14Q318.38 0.37 316.95 0.37L316.95 0.37Q315.76 0.37 314.85 0.01Q313.95-0.35 313.33-1.02Q312.71-1.68 312.40-2.62Q312.09-3.55 312.09-4.71L312.09-4.71Q312.09-5.72 312.33-6.93Q312.58-8.14 313.05-9.47L313.05-9.47Z M357.32-21.76L357.32-21.76Q357.32-22.07 356.92-22.39Q356.52-22.71 355.76-22.71L355.76-22.71Q354.98-22.71 354.06-22.24Q353.14-21.76 351.97-20.55Q350.80-19.34 349.35-17.25Q347.89-15.16 346.05-11.91L346.05-11.91L345.08-10.20L341.39 0L338.48 0L346.91-23.14L349.80-23.14L346.39-13.77Q347.99-16.52 349.32-18.39Q350.64-20.25 351.78-21.40Q352.91-22.54 353.91-23.03Q354.90-23.52 355.86-23.52L355.86-23.52Q357.15-23.52 357.88-22.75Q358.61-21.99 358.61-20.76L358.61-20.76Q358.61-20.25 358.49-19.79Q358.36-19.34 358.12-19.00Q357.87-18.67 357.52-18.48Q357.17-18.28 356.74-18.28L356.74-18.28Q356.43-18.28 356.12-18.38Q355.82-18.48 355.59-18.68Q355.35-18.89 355.21-19.18Q355.06-19.47 355.06-19.86L355.06-19.86Q355.06-20.18 355.17-20.50Q355.27-20.82 355.47-21.06Q355.66-21.31 355.94-21.46Q356.21-21.62 356.54-21.62L356.54-21.62Q356.76-21.62 356.95-21.58L356.95-21.58Q356.99-21.54 357.06-21.51Q357.13-21.48 357.17-21.48L357.17-21.48Q357.32-21.48 357.32-21.76Z M360.16-9.47L365.14-23.14L368.03-23.14L363.05-9.47Q362.77-8.71 362.50-7.92Q362.23-7.13 362.02-6.36Q361.82-5.59 361.69-4.87Q361.56-4.16 361.56-3.55L361.56-3.55Q361.56-2.21 362.28-1.41Q362.99-0.61 364.49-0.61L364.49-0.61Q365.80-0.61 367.02-1.17Q368.24-1.74 369.44-2.88Q370.64-4.02 371.86-5.75Q373.07-7.48 374.38-9.79L374.38-9.79L375.39-11.58L375.92-11.21L374.90-9.41Q373.48-6.89 372.18-5.05Q370.88-3.20 369.58-2.00Q368.28-0.80 366.93-0.21Q365.59 0.37 364.06 0.37L364.06 0.37Q362.87 0.37 361.96 0.01Q361.05-0.35 360.44-1.02Q359.82-1.68 359.51-2.62Q359.20-3.55 359.20-4.71L359.20-4.71Q359.20-5.72 359.44-6.93Q359.69-8.14 360.16-9.47L360.16-9.47ZM366.70-28.26L366.70-28.26Q366.70-28.95 367.18-29.43Q367.66-29.92 368.34-29.92L368.34-29.92Q369.02-29.92 369.50-29.44Q369.98-28.96 369.98-28.28L369.98-28.28Q369.98-27.95 369.85-27.65Q369.73-27.34 369.50-27.13Q369.28-26.91 368.97-26.79Q368.67-26.66 368.32-26.66L368.32-26.66Q367.64-26.66 367.17-27.12Q366.70-27.58 366.70-28.26Z M375.31-11.41L375.31-11.41Q376.02-13.52 376.99-15.24Q377.97-16.97 379.11-18.32Q380.25-19.67 381.51-20.64Q382.77-21.62 384.03-22.26Q385.29-22.89 386.51-23.20Q387.73-23.52 388.81-23.52L388.81-23.52Q389.92-23.52 390.66-23.17Q391.41-22.83 391.87-22.22Q392.32-21.60 392.52-20.73Q392.71-19.86 392.71-18.81L392.71-18.81L398.03-33.44L400.92-33.44L392.21-9.47Q391.93-8.71 391.66-7.91Q391.39-7.11 391.18-6.35Q390.98-5.59 390.85-4.87Q390.72-4.16 390.72-3.55L390.72-3.55Q390.72-2.21 391.44-1.41Q392.15-0.61 393.65-0.61L393.65-0.61Q394.96-0.61 396.19-1.16Q397.42-1.72 398.62-2.86Q399.82-4.00 401.04-5.73Q402.25-7.46 403.54-9.79L403.54-9.79L404.53-11.58L405.06-11.21L404.04-9.41Q402.62-6.89 401.32-5.05Q400.02-3.20 398.73-2.00Q397.44-0.80 396.09-0.21Q394.75 0.37 393.22 0.37L393.22 0.37Q392.03 0.37 391.12 0.01Q390.21-0.35 389.60-1.02Q388.98-1.68 388.67-2.62Q388.36-3.55 388.36-4.71L388.36-4.71Q388.36-5.47 388.50-6.36Q388.63-7.25 388.91-8.20L388.91-8.20Q386.35-3.91 383.85-1.77Q381.35 0.37 378.77 0.37L378.77 0.37Q377.56 0.37 376.71-0.07Q375.86-0.51 375.31-1.30Q374.77-2.09 374.51-3.15Q374.26-4.22 374.26-5.49L374.26-5.49Q374.26-6.86 374.53-8.37Q374.80-9.88 375.31-11.41ZM379.47-0.61L379.47-0.61Q380.53-0.61 381.62-1.16Q382.71-1.72 383.80-2.69Q384.88-3.65 385.90-4.95Q386.91-6.25 387.82-7.72Q388.73-9.20 389.49-10.76Q390.25-12.32 390.81-13.84Q391.37-15.35 391.67-16.73Q391.97-18.11 391.97-19.20L391.97-19.20Q391.97-20.20 391.73-20.87Q391.48-21.54 391.08-21.96Q390.68-22.38 390.17-22.56Q389.65-22.73 389.10-22.73L389.10-22.73Q388.01-22.73 386.67-22.06Q385.33-21.39 383.95-20.01Q382.56-18.63 381.22-16.53Q379.88-14.43 378.77-11.60L378.77-11.60Q377.85-9.24 377.39-7.23Q376.93-5.21 376.93-3.87L376.93-3.87Q376.93-2.34 377.55-1.47Q378.16-0.61 379.47-0.61Z M403.77-9.47L408.75-23.14L411.64-23.14L406.66-9.47Q406.39-8.71 406.11-7.92Q405.84-7.13 405.63-6.36Q405.43-5.59 405.30-4.87Q405.18-4.16 405.18-3.55L405.18-3.55Q405.18-2.21 405.89-1.41Q406.60-0.61 408.11-0.61L408.11-0.61Q409.41-0.61 410.63-1.17Q411.86-1.74 413.06-2.88Q414.26-4.02 415.47-5.75Q416.68-7.48 417.99-9.79L417.99-9.79L419.00-11.58L419.53-11.21L418.52-9.41Q417.09-6.89 415.79-5.05Q414.49-3.20 413.19-2.00Q411.89-0.80 410.55-0.21Q409.20 0.37 407.68 0.37L407.68 0.37Q406.48 0.37 405.58 0.01Q404.67-0.35 404.05-1.02Q403.44-1.68 403.13-2.62Q402.81-3.55 402.81-4.71L402.81-4.71Q402.81-5.72 403.06-6.93Q403.30-8.14 403.77-9.47L403.77-9.47ZM410.31-28.26L410.31-28.26Q410.31-28.95 410.79-29.43Q411.27-29.92 411.95-29.92L411.95-29.92Q412.64-29.92 413.12-29.44Q413.59-28.96 413.59-28.28L413.59-28.28Q413.59-27.95 413.47-27.65Q413.34-27.34 413.12-27.13Q412.89-26.91 412.59-26.79Q412.29-26.66 411.93-26.66L411.93-26.66Q411.25-26.66 410.78-27.12Q410.31-27.58 410.31-28.26Z M425.70 10.29L432.34-7.95Q429.84-3.77 427.37-1.70Q424.90 0.37 422.36 0.37L422.36 0.37Q421.15 0.37 420.30-0.07Q419.45-0.51 418.91-1.30Q418.36-2.09 418.11-3.15Q417.85-4.22 417.85-5.49L417.85-5.49Q417.85-6.86 418.13-8.37Q418.40-9.88 418.91-11.41L418.91-11.41Q419.61-13.52 420.59-15.24Q421.56-16.97 422.71-18.32Q423.85-19.67 425.11-20.64Q426.37-21.62 427.63-22.26Q428.89-22.89 430.11-23.20Q431.33-23.52 432.40-23.52L432.40-23.52Q433.52-23.52 434.26-23.17Q435-22.83 435.46-22.22Q435.92-21.60 436.11-20.73Q436.31-19.86 436.31-18.81L436.31-18.81L437.89-23.14L440.78-23.14L428.61 10.29L425.70 10.29ZM423.09-0.61L423.09-0.61Q424.14-0.61 425.23-1.16Q426.33-1.72 427.41-2.69Q428.50-3.65 429.51-4.95Q430.53-6.25 431.44-7.72Q432.34-9.20 433.11-10.76Q433.87-12.32 434.42-13.84Q434.98-15.35 435.28-16.73Q435.59-18.11 435.59-19.20L435.59-19.20Q435.59-20.20 435.34-20.87Q435.10-21.54 434.70-21.96Q434.30-22.38 433.78-22.56Q433.26-22.73 432.71-22.73L432.71-22.73Q431.62-22.73 430.28-22.06Q428.95-21.39 427.56-20.01Q426.17-18.63 424.83-16.53Q423.50-14.43 422.38-11.60L422.38-11.60Q421.46-9.24 421.01-7.23Q420.55-5.21 420.55-3.87L420.55-3.87Q420.55-2.34 421.16-1.47Q421.78-0.61 423.09-0.61Z M444.65-9.47L449.63-23.14L452.52-23.14L447.54-9.47Q447.27-8.71 446.99-7.92Q446.72-7.13 446.51-6.36Q446.31-5.59 446.18-4.87Q446.05-4.16 446.05-3.55L446.05-3.55Q446.05-2.21 446.78-1.41Q447.50-0.61 448.98-0.61L448.98-0.61Q450.29-0.61 451.52-1.17Q452.75-1.74 453.96-2.88Q455.16-4.02 456.37-5.74Q457.58-7.46 458.87-9.79L458.87-9.79L459.82-11.50L464.08-23.14L466.97-23.14L461.99-9.47Q461.72-8.71 461.45-7.92Q461.17-7.13 460.97-6.36Q460.76-5.59 460.63-4.87Q460.51-4.16 460.51-3.55L460.51-3.55Q460.51-2.21 461.22-1.41Q461.93-0.61 463.44-0.61L463.44-0.61Q464.75-0.61 465.97-1.17Q467.19-1.74 468.39-2.88Q469.59-4.02 470.80-5.75Q472.01-7.48 473.32-9.79L473.32-9.79L474.34-11.58L474.84-11.21L473.85-9.41Q472.44-6.88 471.14-5.03Q469.84-3.18 468.54-1.98Q467.25-0.78 465.89-0.21Q464.53 0.37 463.01 0.37L463.01 0.37Q461.82 0.37 460.91 0.01Q460-0.35 459.38-1.02Q458.77-1.68 458.46-2.62Q458.14-3.55 458.14-4.71L458.14-4.71Q458.14-5.47 458.28-6.36Q458.42-7.25 458.69-8.18L458.69-8.18Q457.38-5.98 456.17-4.37Q454.96-2.75 453.75-1.70Q452.54-0.64 451.26-0.14Q449.98 0.37 448.55 0.37L448.55 0.37Q447.36 0.37 446.46 0.01Q445.55-0.35 444.93-1.02Q444.32-1.68 444.00-2.62Q443.69-3.55 443.69-4.71L443.69-4.71Q443.69-5.72 443.94-6.93Q444.18-8.14 444.65-9.47L444.65-9.47Z M481.02 0.37L481.02 0.37Q477.48 0.37 475.57-1.47Q473.65-3.32 473.65-6.97L473.65-6.97Q473.65-7.97 473.80-9.08Q473.95-10.20 474.26-11.37L474.26-11.37Q474.96-13.98 476.24-16.21Q477.52-18.44 479.18-20.06Q480.84-21.68 482.75-22.60Q484.67-23.52 486.60-23.52L486.60-23.52Q488.55-23.52 489.68-22.60Q490.80-21.68 490.80-20.02L490.80-20.02Q490.80-19.08 490.43-18.18Q490.06-17.29 489.36-16.48Q488.65-15.68 487.67-14.99Q486.68-14.30 485.45-13.79L485.45-13.79Q483.93-13.14 482.09-12.82Q480.25-12.50 477.91-12.50L477.91-12.50Q477.34-10.92 477.02-9.21Q476.70-7.50 476.70-5.72L476.70-5.72Q476.70-3.01 477.84-1.81Q478.98-0.61 481.45-0.61L481.45-0.61Q483.50-0.61 485.35-1.40Q487.21-2.19 488.79-3.48Q490.37-4.77 491.68-6.42Q492.99-8.07 493.96-9.79L493.96-9.79L494.98-11.58L495.51-11.21L494.49-9.41Q493.28-7.29 491.85-5.49Q490.41-3.69 488.72-2.39Q487.03-1.09 485.11-0.36Q483.18 0.37 481.02 0.37ZM487.15-22.73L487.15-22.73Q485.92-22.73 484.64-22.01Q483.36-21.29 482.17-20.01Q480.98-18.73 479.94-16.99Q478.91-15.25 478.14-13.20L478.14-13.20Q480.29-13.24 481.82-13.58Q483.34-13.93 484.47-14.45L484.47-14.45Q485.37-14.86 486.22-15.52Q487.07-16.17 487.72-17.01Q488.38-17.85 488.78-18.83Q489.18-19.80 489.18-20.86L489.18-20.86Q489.18-21.39 489.02-21.74Q488.87-22.09 488.59-22.31Q488.32-22.54 487.95-22.64Q487.58-22.73 487.15-22.73Z M516.13 0.37L516.13 0.37Q512.60 0.37 510.68-1.47Q508.77-3.32 508.77-6.97L508.77-6.97Q508.77-7.97 508.92-9.08Q509.06-10.20 509.38-11.37L509.38-11.37Q510.08-13.98 511.36-16.21Q512.64-18.44 514.30-20.06Q515.96-21.68 517.87-22.60Q519.79-23.52 521.72-23.52L521.72-23.52Q523.67-23.52 524.79-22.60Q525.92-21.68 525.92-20.02L525.92-20.02Q525.92-19.08 525.55-18.18Q525.18-17.29 524.47-16.48Q523.77-15.68 522.78-14.99Q521.80-14.30 520.57-13.79L520.57-13.79Q519.04-13.14 517.21-12.82Q515.37-12.50 513.03-12.50L513.03-12.50Q512.46-10.92 512.14-9.21Q511.82-7.50 511.82-5.72L511.82-5.72Q511.82-3.01 512.96-1.81Q514.10-0.61 516.56-0.61L516.56-0.61Q518.61-0.61 520.47-1.40Q522.32-2.19 523.91-3.48Q525.49-4.77 526.80-6.42Q528.11-8.07 529.08-9.79L529.08-9.79L530.10-11.58L530.63-11.21L529.61-9.41Q528.40-7.29 526.96-5.49Q525.53-3.69 523.84-2.39Q522.15-1.09 520.22-0.36Q518.30 0.37 516.13 0.37ZM522.27-22.73L522.27-22.73Q521.04-22.73 519.76-22.01Q518.48-21.29 517.29-20.01Q516.09-18.73 515.06-16.99Q514.02-15.25 513.26-13.20L513.26-13.20Q515.41-13.24 516.93-13.58Q518.46-13.93 519.59-14.45L519.59-14.45Q520.49-14.86 521.34-15.52Q522.19-16.17 522.84-17.01Q523.50-17.85 523.90-18.83Q524.30-19.80 524.30-20.86L524.30-20.86Q524.30-21.39 524.14-21.74Q523.98-22.09 523.71-22.31Q523.44-22.54 523.07-22.64Q522.70-22.73 522.27-22.73Z M525.86 0L534.30-23.14L537.19-23.14L534.12-14.75Q535.43-16.97 536.64-18.62Q537.85-20.27 539.05-21.36Q540.25-22.44 541.48-22.98Q542.71-23.52 544.08-23.52L544.08-23.52Q545.31-23.52 546.23-23.12Q547.15-22.71 547.77-22.02Q548.40-21.33 548.71-20.41Q549.02-19.49 549.02-18.48L549.02-18.48Q549.02-17.36 548.70-16.05Q548.38-14.75 547.89-13.36Q547.40-11.97 546.84-10.56Q546.27-9.14 545.78-7.83Q545.29-6.52 544.97-5.38Q544.65-4.24 544.65-3.38L544.65-3.38Q544.65-2.19 545.38-1.40Q546.11-0.61 547.68-0.61L547.68-0.61Q548.93-0.61 550.13-1.18Q551.33-1.76 552.53-2.90Q553.73-4.04 554.95-5.77Q556.17-7.50 557.46-9.79L557.46-9.79L558.48-11.58L559.00-11.21L557.99-9.41Q556.58-6.95 555.29-5.11Q554.00-3.26 552.71-2.05Q551.43-0.84 550.09-0.23Q548.75 0.37 547.25 0.37L547.25 0.37Q546.02 0.37 545.09 0Q544.16-0.37 543.54-1.02Q542.91-1.66 542.60-2.51Q542.29-3.36 542.29-4.32L542.29-4.32Q542.29-5.33 542.61-6.59Q542.93-7.85 543.42-9.23Q543.91-10.61 544.47-12.02Q545.04-13.44 545.53-14.78Q546.02-16.11 546.34-17.31Q546.66-18.52 546.66-19.45L546.66-19.45Q546.66-20.12 546.48-20.68Q546.31-21.25 545.93-21.66Q545.55-22.07 544.97-22.30Q544.39-22.54 543.59-22.54L543.59-22.54Q542.36-22.54 541.19-21.94Q540.02-21.35 538.84-20.16Q537.66-18.96 536.44-17.18Q535.21-15.39 533.87-13.01L533.87-13.01L532.85-11.21L528.75 0L525.86 0Z M599.94-18.87L599.45-19.47Q600.61-20.61 601.53-21.85Q602.46-23.09 603.12-24.30Q603.77-25.51 604.12-26.62Q604.47-27.73 604.47-28.65L604.47-28.65Q604.47-29.04 604.39-29.41Q604.32-29.79 604.11-30.07Q603.91-30.35 603.56-30.52Q603.22-30.68 602.70-30.68L602.70-30.68Q601.58-30.68 600.44-29.92Q599.30-29.16 598.24-27.71L598.24-27.71Q597.42-26.60 596.75-25.21Q596.07-23.81 595.45-22.23Q594.82-20.64 594.22-18.93Q593.61-17.21 592.93-15.45L592.93-15.45Q591.97-12.99 591.03-10.94Q590.08-8.89 589.09-7.23Q588.11-5.57 587.08-4.29Q586.05-3.01 584.94-2.07L584.94-2.07Q585.88-1.80 587.02-1.51Q588.16-1.23 589.41-1.00Q590.66-0.76 591.95-0.61Q593.24-0.45 594.51-0.45L594.51-0.45Q596.76-0.45 598.44-1.02Q600.12-1.58 601.50-2.74Q602.89-3.91 604.13-5.65Q605.37-7.40 606.72-9.79L606.72-9.79L607.71-11.58L608.24-11.21L607.23-9.41Q605.37-6.13 603.63-4.03Q601.89-1.93 600.22-0.73Q598.55 0.47 596.92 0.92Q595.29 1.37 593.65 1.37L593.65 1.37Q592.54 1.37 591.28 1.17Q590.02 0.98 588.70 0.65Q587.38 0.33 586.02-0.08Q584.65-0.49 583.32-0.90L583.32-0.90Q581.88-0.04 580.31 0.36Q578.75 0.76 576.95 0.76L576.95 0.76Q575.72 0.76 574.95 0.60Q574.18 0.43 573.73 0.16Q573.28-0.12 573.12-0.47Q572.95-0.82 572.95-1.17L572.95-1.17Q572.95-1.88 573.40-2.30Q573.85-2.73 574.53-2.98Q575.21-3.22 576.04-3.31Q576.86-3.40 577.60-3.40L577.60-3.40Q579.22-3.40 580.67-3.13Q582.13-2.87 583.36-2.54L583.36-2.54Q583.96-3.24 584.56-4.18Q585.16-5.12 585.79-6.34Q586.43-7.56 587.11-9.09Q587.79-10.63 588.57-12.50L588.57-12.50Q589.80-15.43 590.79-17.92Q591.78-20.41 592.71-22.44Q593.65-24.47 594.62-26.08Q595.59-27.70 596.80-28.87L596.80-28.87Q598.14-30.18 599.61-30.80Q601.07-31.43 602.44-31.43L602.44-31.43Q603.36-31.43 603.97-31.17Q604.59-30.92 604.95-30.48Q605.31-30.04 605.46-29.45Q605.61-28.87 605.61-28.18L605.61-28.18Q605.61-25.88 604.15-23.53Q602.70-21.17 599.94-18.87L599.94-18.87ZM576.97 0.06L576.97 0.06Q578.59 0.06 579.80-0.23Q581.02-0.53 582.07-1.31L582.07-1.31Q581.43-1.50 580.71-1.71Q580-1.91 579.24-2.08Q578.48-2.25 577.71-2.35Q576.93-2.46 576.19-2.46L576.19-2.46Q575.04-2.46 574.38-2.16Q573.73-1.86 573.73-1.17L573.73-1.17Q573.73-0.92 573.86-0.69Q573.98-0.47 574.34-0.30Q574.69-0.14 575.32-0.04Q575.96 0.06 576.97 0.06Z M606.95-9.47L611.93-23.14L614.82-23.14L609.84-9.47Q609.57-8.71 609.30-7.92Q609.02-7.13 608.82-6.36Q608.61-5.59 608.49-4.87Q608.36-4.16 608.36-3.55L608.36-3.55Q608.36-2.21 609.07-1.41Q609.79-0.61 611.29-0.61L611.29-0.61Q612.60-0.61 613.82-1.17Q615.04-1.74 616.24-2.88Q617.44-4.02 618.65-5.75Q619.86-7.48 621.17-9.79L621.17-9.79L622.19-11.58L622.71-11.21L621.70-9.41Q620.27-6.89 618.97-5.05Q617.68-3.20 616.38-2.00Q615.08-0.80 613.73-0.21Q612.38 0.37 610.86 0.37L610.86 0.37Q609.67 0.37 608.76 0.01Q607.85-0.35 607.24-1.02Q606.62-1.68 606.31-2.62Q606.00-3.55 606.00-4.71L606.00-4.71Q606.00-5.72 606.24-6.93Q606.48-8.14 606.95-9.47L606.95-9.47ZM613.50-28.26L613.50-28.26Q613.50-28.95 613.97-29.43Q614.45-29.92 615.14-29.92L615.14-29.92Q615.82-29.92 616.30-29.44Q616.78-28.96 616.78-28.28L616.78-28.28Q616.78-27.95 616.65-27.65Q616.52-27.34 616.30-27.13Q616.07-26.91 615.77-26.79Q615.47-26.66 615.12-26.66L615.12-26.66Q614.43-26.66 613.96-27.12Q613.50-27.58 613.50-28.26Z M623.81 10.29L623.81 10.29Q621.91 10.29 620.65 9.79Q619.39 9.28 618.65 8.18L618.65 8.18Q618.26 7.66 618.06 7.06Q617.85 6.46 617.85 5.88L617.85 5.88Q617.85 5 618.31 4.49Q618.77 3.98 619.57 3.98L619.57 3.98Q620.25 3.98 620.64 4.36Q621.04 4.73 621.04 5.39L621.04 5.39Q621.04 6.02 620.70 6.41Q620.37 6.80 619.86 6.80L619.86 6.80Q619.65 6.80 619.52 6.74Q619.39 6.68 619.24 6.68L619.24 6.68Q619.14 6.68 619.10 6.73Q619.06 6.78 619.06 6.93L619.06 6.93Q619.06 7.48 619.41 7.94Q619.77 8.40 620.39 8.74Q621.02 9.08 621.88 9.27Q622.73 9.45 623.73 9.45L623.73 9.45Q625.16 9.45 626.35 9.04Q627.54 8.63 628.53 7.76Q629.51 6.89 630.32 5.56Q631.13 4.22 631.82 2.34L631.82 2.34L635.53-7.93Q633.03-3.77 630.57-1.70Q628.11 0.37 625.57 0.37L625.57 0.37Q624.36 0.37 623.51-0.07Q622.66-0.51 622.11-1.30Q621.56-2.09 621.31-3.15Q621.05-4.22 621.05-5.49L621.05-5.49Q621.05-6.86 621.33-8.37Q621.60-9.88 622.11-11.41L622.11-11.41Q622.81-13.52 623.79-15.24Q624.77-16.97 625.91-18.32Q627.05-19.67 628.31-20.64Q629.57-21.62 630.83-22.26Q632.09-22.89 633.31-23.20Q634.53-23.52 635.61-23.52L635.61-23.52Q636.72-23.52 637.47-23.19Q638.22-22.87 638.67-22.27Q639.12-21.66 639.32-20.80Q639.51-19.94 639.51-18.89L639.51-18.89L641.07-23.14L643.96-23.14L634.75 2.19Q633.30 6.15 630.51 8.22Q627.71 10.29 623.81 10.29ZM626.27-0.61L626.27-0.61Q627.32-0.61 628.42-1.16Q629.51-1.72 630.60-2.69Q631.68-3.65 632.70-4.95Q633.71-6.25 634.62-7.72Q635.53-9.20 636.29-10.76Q637.05-12.32 637.61-13.84Q638.16-15.35 638.47-16.73Q638.77-18.11 638.77-19.20L638.77-19.20Q638.77-20.20 638.53-20.87Q638.28-21.54 637.88-21.96Q637.48-22.38 636.96-22.56Q636.45-22.73 635.90-22.73L635.90-22.73Q634.80-22.73 633.47-22.06Q632.13-21.39 630.74-20.01Q629.36-18.63 628.02-16.53Q626.68-14.43 625.57-11.60L625.57-11.60Q624.65-9.24 624.19-7.23Q623.73-5.21 623.73-3.87L623.73-3.87Q623.73-2.34 624.35-1.47Q624.96-0.61 626.27-0.61Z M644.38 0L652.81-23.14L655.70-23.14L652.64-14.75Q653.95-16.97 655.16-18.62Q656.37-20.27 657.57-21.36Q658.77-22.44 660-22.98Q661.23-23.52 662.60-23.52L662.60-23.52Q663.83-23.52 664.75-23.12Q665.66-22.71 666.29-22.02Q666.91-21.33 667.23-20.41Q667.54-19.49 667.54-18.48L667.54-18.48Q667.54-17.36 667.22-16.05Q666.89-14.75 666.41-13.36Q665.92-11.97 665.35-10.56Q664.79-9.14 664.30-7.83Q663.81-6.52 663.49-5.38Q663.16-4.24 663.16-3.38L663.16-3.38Q663.16-2.19 663.90-1.40Q664.63-0.61 666.19-0.61L666.19-0.61Q667.44-0.61 668.64-1.18Q669.84-1.76 671.04-2.90Q672.25-4.04 673.47-5.77Q674.69-7.50 675.98-9.79L675.98-9.79L676.99-11.58L677.52-11.21L676.50-9.41Q675.10-6.95 673.81-5.11Q672.52-3.26 671.23-2.05Q669.94-0.84 668.60-0.23Q667.27 0.37 665.76 0.37L665.76 0.37Q664.53 0.37 663.60 0Q662.68-0.37 662.05-1.02Q661.43-1.66 661.11-2.51Q660.80-3.36 660.80-4.32L660.80-4.32Q660.80-5.33 661.12-6.59Q661.45-7.85 661.93-9.23Q662.42-10.61 662.99-12.02Q663.55-13.44 664.04-14.78Q664.53-16.11 664.85-17.31Q665.18-18.52 665.18-19.45L665.18-19.45Q665.18-20.12 665-20.68Q664.82-21.25 664.44-21.66Q664.06-22.07 663.49-22.30Q662.91-22.54 662.11-22.54L662.11-22.54Q660.88-22.54 659.71-21.94Q658.54-21.35 657.35-20.16Q656.17-18.96 654.95-17.18Q653.73-15.39 652.38-13.01L652.38-13.01L651.37-11.21L647.27 0L644.38 0Z M683.67 0.37L683.67 0.37Q680.14 0.37 678.22-1.47Q676.31-3.32 676.31-6.97L676.31-6.97Q676.31-7.97 676.46-9.08Q676.60-10.20 676.91-11.37L676.91-11.37Q677.62-13.98 678.90-16.21Q680.18-18.44 681.84-20.06Q683.50-21.68 685.41-22.60Q687.32-23.52 689.26-23.52L689.26-23.52Q691.21-23.52 692.33-22.60Q693.46-21.68 693.46-20.02L693.46-20.02Q693.46-19.08 693.09-18.18Q692.71-17.29 692.01-16.48Q691.31-15.68 690.32-14.99Q689.34-14.30 688.11-13.79L688.11-13.79Q686.58-13.14 684.75-12.82Q682.91-12.50 680.57-12.50L680.57-12.50Q680-10.92 679.68-9.21Q679.36-7.50 679.36-5.72L679.36-5.72Q679.36-3.01 680.50-1.81Q681.64-0.61 684.10-0.61L684.10-0.61Q686.15-0.61 688.01-1.40Q689.86-2.19 691.45-3.48Q693.03-4.77 694.34-6.42Q695.64-8.07 696.62-9.79L696.62-9.79L697.64-11.58L698.16-11.21L697.15-9.41Q695.94-7.29 694.50-5.49Q693.07-3.69 691.38-2.39Q689.69-1.09 687.76-0.36Q685.84 0.37 683.67 0.37ZM689.80-22.73L689.80-22.73Q688.57-22.73 687.29-22.01Q686.02-21.29 684.82-20.01Q683.63-18.73 682.60-16.99Q681.56-15.25 680.80-13.20L680.80-13.20Q682.95-13.24 684.47-13.58Q686.00-13.93 687.13-14.45L687.13-14.45Q688.03-14.86 688.88-15.52Q689.73-16.17 690.38-17.01Q691.04-17.85 691.44-18.83Q691.84-19.80 691.84-20.86L691.84-20.86Q691.84-21.39 691.68-21.74Q691.52-22.09 691.25-22.31Q690.98-22.54 690.61-22.64Q690.23-22.73 689.80-22.73Z"/></g>
</svg>
</g><g opacity="1" transform="rotate(30 528.6413 281.6325)">
<svg width="39.2619" height="52.5689" x="528.6413" y="281.6325" version="1.1" preserveAspectRatio="none" viewBox="-13.77558135986328 -22.76799774169922 67.21858215332031 90.0009994506836">
  <g transform="matrix(1 0 0 1 0 0)" class="aLgOaV3zRcolors-0"><path d="M17.91,25.109c0.283,0.123,7.021,2.999,15.371,2.999c7.943,0,14.506-2.576,19.512-7.651l0.65-0.659l-0.823-0.423  c-0.229-0.117-5.684-2.867-13.618-2.867c-7.168,0-13.919,2.219-20.088,6.595c8.212-8.743,18.012-17.524,29.383-25.016L47.548-3.05  C40.8,1.396,34.603,6.293,28.956,11.367c9.133-18.272-1.117-33.224-1.225-33.377l-0.529-0.758l-0.562,0.737  c-11.69,15.25,0.082,34.991,0.202,35.189l0.054,0.087c-5.546,5.146-10.53,10.437-14.95,15.595  C19.167,11.631,9.774-2.088,9.671-2.234L9.137-2.993L8.574-2.256c-11.11,14.498-1.022,33.042,0.104,35.007  C3.066,39.642-1.504,46.155-5.018,51.598c6.801-16.952-2.392-30.384-2.494-30.528l-0.533-0.76l-0.563,0.737  c-11.688,15.251,0.088,34.995,0.208,35.191l0.238,0.39c-3.653,6.044-5.522,9.893-5.583,10.021l1.227,0.584  c0.096-0.2,4.775-9.824,13.931-22.7l0.115,0.05c0.28,0.122,7.016,2.999,15.37,2.999c7.94,0,14.503-2.576,19.506-7.648l0.65-0.662  l-0.825-0.422c-0.229-0.117-5.678-2.865-13.618-2.865c-6.939,0-13.488,2.086-19.497,6.191c3.978-5.434,8.709-11.352,14.185-17.329  L17.91,25.109z M28.047,10.12l-0.688-30.125C29.452-16.239,34.861-4.187,28.047,10.12z M26.028-18.666l0.653,28.558  C24.223,4.627,19.75-7.83,26.028-18.666z M21.163,24.823l28.381-3.296c-4.399,3.457-9.85,5.221-16.263,5.221  C28.317,26.748,23.864,25.662,21.163,24.823z M50.703,20.027L20.78,23.503c5.644-3.725,11.754-5.635,18.222-5.635  C44.404,17.868,48.671,19.231,50.703,20.027z M9.987,29.894L9.297-0.227C11.398,3.538,16.812,15.572,9.987,29.894z M7.967,1.104  l0.654,28.564C6.162,24.404,1.683,11.94,7.967,1.104z M-7.194,53.202l-0.69-30.132C-5.787,26.828-0.365,38.869-7.194,53.202z   M-9.214,24.411l0.654,28.555C-11.021,47.698-15.492,35.243-9.214,24.411z M4.789,44.297l28.368-3.296  c-4.4,3.455-9.849,5.216-16.258,5.216C11.938,46.217,7.491,45.136,4.789,44.297z M22.616,37.342c5.409,0,9.676,1.363,11.706,2.159  L4.385,42.979C10.029,39.252,16.146,37.342,22.616,37.342z"></path></g>
</svg>
</g><g opacity="1" transform="rotate(0 565.0785 311.1704)">
<svg width="157.4215" height="1.7375" x="565.0785" y="311.1704" version="1.1" preserveAspectRatio="none" viewBox="0 0 157.4215 1.7375">
  <rect x="0" y="0" width="157.4215" height="1.7375" class="aR9TavoXYfillColor aR9TavoXYstrokeColor-str" style="stroke-width:0;" rx="0px" ry="0px" />
</svg>
</g><g opacity="1" transform="rotate(0 342.5 257.9589)">
<svg width="380" height="26.0628" x="342.5" y="257.9589" version="1.1" preserveAspectRatio="none" viewBox="1.8 -38.4 711.52 48.8">
  <g transform="matrix(1 0 0 1 0 0)" class="aD6z1nYkhcolor"><path id="id-D6z1nYkh24" d="M10.40-14.52L10.40-6.36Q10.40-4.84 10.58-3.90Q10.76-2.96 11.36-2.46Q11.96-1.96 13.06-1.76Q14.16-1.56 15.96-1.52L15.96-1.52L15.96 0L1.80 0L1.80-1.52Q3.20-1.56 4.06-1.76Q4.92-1.96 5.40-2.44Q5.88-2.92 6.04-3.80Q6.20-4.68 6.20-6.08L6.20-6.08L6.20-24.72Q6.20-26.12 6.06-26.98Q5.92-27.84 5.50-28.34Q5.08-28.84 4.28-29.02Q3.48-29.20 2.20-29.28L2.20-29.28L2.20-30.80L25.32-30.80L25.76-23.16L24.36-23.16Q24.12-24.88 23.60-25.98Q23.08-27.08 22.14-27.72Q21.20-28.36 19.76-28.62Q18.32-28.88 16.16-28.88L16.16-28.88L11.08-28.88Q10.40-28.88 10.40-28.20L10.40-28.20L10.40-16.12Q12.32-16.12 13.70-16.34Q15.08-16.56 15.98-17.12Q16.88-17.68 17.36-18.64Q17.84-19.60 17.96-21.12L17.96-21.12L19.36-21.12L19.36-9.40L17.96-9.40Q17.76-10.92 17.32-11.92Q16.88-12.92 16.02-13.48Q15.16-14.04 13.80-14.28Q12.44-14.52 10.40-14.52L10.40-14.52Z M47.72-31.20L47.72-31.20Q51.24-31.20 54.28-29.96Q57.32-28.72 59.56-26.56Q61.80-24.40 63.08-21.48Q64.36-18.56 64.36-15.16L64.36-15.16Q64.36-11.92 63.06-9.08Q61.76-6.24 59.52-4.14Q57.28-2.04 54.24-0.82Q51.20 0.40 47.72 0.40L47.72 0.40Q44.24 0.40 41.20-0.82Q38.16-2.04 35.92-4.14Q33.68-6.24 32.38-9.08Q31.08-11.92 31.08-15.16L31.08-15.16Q31.08-18.56 32.36-21.48Q33.64-24.40 35.88-26.56Q38.12-28.72 41.16-29.96Q44.20-31.20 47.72-31.20ZM47.72-1.80L47.72-1.80Q50.36-1.80 52.46-2.72Q54.56-3.64 56.06-5.36Q57.56-7.08 58.36-9.54Q59.16-12 59.16-15.04L59.16-15.04Q59.16-18.24 58.36-20.82Q57.56-23.40 56.08-25.22Q54.60-27.04 52.48-28.02Q50.36-29 47.72-29L47.72-29Q45.08-29 42.96-28.02Q40.84-27.04 39.36-25.22Q37.88-23.40 37.08-20.82Q36.28-18.24 36.28-15.04L36.28-15.04Q36.28-12 37.08-9.54Q37.88-7.08 39.36-5.36Q40.84-3.64 42.96-2.72Q45.08-1.80 47.72-1.80Z M94.44-23.08L94.44-23.08Q94.44-19.88 92.52-17.76Q90.60-15.64 86.40-14.92L86.40-14.92L95.24-4.28Q96.32-2.96 97.62-2.38Q98.92-1.80 100.72-1.52L100.72-1.52L100.72 0L93 0L83.20-12.56Q82.68-13.24 82.22-13.64Q81.76-14.04 81.26-14.26Q80.76-14.48 80.10-14.54Q79.44-14.60 78.52-14.60L78.52-14.60L78.52-6.28Q78.52-4.80 78.70-3.86Q78.88-2.92 79.46-2.40Q80.04-1.88 81.14-1.70Q82.24-1.52 84.04-1.52L84.04-1.52L84.04 0L69.92 0L69.92-1.52Q71.32-1.56 72.18-1.76Q73.04-1.96 73.52-2.44Q74-2.92 74.16-3.80Q74.32-4.68 74.32-6.08L74.32-6.08L74.32-24.72Q74.32-26.12 74.18-26.98Q74.04-27.84 73.62-28.34Q73.20-28.84 72.40-29.02Q71.60-29.20 70.32-29.28L70.32-29.28L70.32-30.80L82.88-30.80Q88.40-30.80 91.42-28.76Q94.44-26.72 94.44-23.08ZM78.52-28.24L78.52-16.60L81.36-16.60Q85.36-16.60 87.30-18.06Q89.24-19.52 89.24-22.88L89.24-22.88Q89.24-26.12 87.70-27.52Q86.16-28.92 82.88-28.92L82.88-28.92L79.20-28.92Q78.52-28.92 78.52-28.24L78.52-28.24Z M123.48-7.16L123.64-7.16L134.04-30.80L143-30.80L143-29.28Q141.72-29.24 140.94-28.96Q140.16-28.68 139.74-28.02Q139.32-27.36 139.18-26.20Q139.04-25.04 139.04-23.24L139.04-23.24L139.04-7.56Q139.04-5.56 139.20-4.40Q139.36-3.24 139.82-2.60Q140.28-1.96 141.14-1.76Q142-1.56 143.40-1.52L143.40-1.52L143.40 0L130.44 0L130.44-1.52Q131.84-1.56 132.70-1.78Q133.56-2 134.04-2.60Q134.52-3.20 134.68-4.30Q134.84-5.40 134.84-7.28L134.84-7.28L134.84-25.84L134.44-25.84L122.76 0.40L121.88 0.40L110.40-25.84L110.24-25.84L110.24-7.56Q110.24-5.56 110.40-4.40Q110.56-3.24 111.02-2.60Q111.48-1.96 112.34-1.76Q113.20-1.56 114.60-1.52L114.60-1.52L114.60 0L103.44 0L103.44-1.52Q104.84-1.56 105.70-1.78Q106.56-2 107.04-2.60Q107.52-3.20 107.68-4.30Q107.84-5.40 107.84-7.28L107.84-7.28L107.84-23.52Q107.84-25.20 107.70-26.30Q107.56-27.40 107.14-28.04Q106.72-28.68 105.92-28.94Q105.12-29.20 103.84-29.28L103.84-29.28L103.84-30.80L113.40-30.80L123.48-7.16Z M168.40-6.84L166.76-11.16L156.08-11.16Q155.40-9.52 154.92-8.26Q154.44-7 154.14-6.08Q153.84-5.16 153.72-4.52Q153.60-3.88 153.60-3.48L153.60-3.48Q153.60-2.36 154.32-1.94Q155.04-1.52 156.72-1.52L156.72-1.52L156.72 0L147 0L147-1.52Q147.92-1.64 148.58-1.84Q149.24-2.04 149.74-2.40Q150.24-2.76 150.62-3.34Q151-3.92 151.36-4.76L151.36-4.76L161.76-30.80L163.48-30.80L172.56-8.24Q173.48-6 174.16-4.66Q174.84-3.32 175.48-2.64Q176.12-1.96 176.86-1.76Q177.60-1.56 178.64-1.56L178.64-1.56L178.64 0L165.60 0L165.60-1.56Q167.72-1.56 168.52-1.96Q169.32-2.36 169.32-3.28L169.32-3.28Q169.32-3.68 169.28-4.02Q169.24-4.36 169.14-4.76Q169.04-5.16 168.86-5.66Q168.68-6.16 168.40-6.84L168.40-6.84ZM161.56-24.96L156.88-13.16L166-13.16L161.56-24.96Z M208.36-7.88L207.76 0L181.92 0L181.92-1.52Q183.32-1.56 184.18-1.76Q185.04-1.96 185.52-2.44Q186-2.92 186.16-3.80Q186.32-4.68 186.32-6.08L186.32-6.08L186.32-24.72Q186.32-26.12 186.18-26.98Q186.04-27.84 185.62-28.34Q185.20-28.84 184.40-29.02Q183.60-29.20 182.32-29.28L182.32-29.28L182.32-30.80L194.48-30.80L194.48-29.28Q193.20-29.24 192.42-29.04Q191.64-28.84 191.22-28.32Q190.80-27.80 190.66-26.88Q190.52-25.96 190.52-24.44L190.52-24.44L190.52-7.20Q190.52-5.52 190.86-4.46Q191.20-3.40 192.02-2.82Q192.84-2.24 194.20-2.02Q195.56-1.80 197.64-1.80L197.64-1.80Q199.92-1.80 201.48-2.06Q203.04-2.32 204.10-2.98Q205.16-3.64 205.78-4.82Q206.40-6 206.84-7.88L206.84-7.88L208.36-7.88Z M221.60-23.24L221.60-7.56Q221.60-5.56 221.76-4.40Q221.92-3.24 222.38-2.60Q222.84-1.96 223.70-1.76Q224.56-1.56 225.96-1.52L225.96-1.52L225.96 0L213.00 0L213.00-1.52Q214.40-1.56 215.26-1.78Q216.12-2 216.60-2.60Q217.08-3.20 217.24-4.30Q217.40-5.40 217.40-7.28L217.40-7.28L217.40-23.52Q217.40-25.20 217.26-26.30Q217.12-27.40 216.70-28.04Q216.28-28.68 215.48-28.94Q214.68-29.20 213.40-29.28L213.40-29.28L213.40-30.80L225.56-30.80L225.56-29.28Q224.28-29.24 223.50-28.96Q222.72-28.68 222.30-28.02Q221.88-27.36 221.74-26.20Q221.60-25.04 221.60-23.24L221.60-23.24Z M260.84-30.80L261.24-23.16L259.60-23.16Q259.48-24.88 259.04-26.04Q258.60-27.20 257.78-27.86Q256.96-28.52 255.72-28.80Q254.48-29.08 252.76-29.08L252.76-29.08Q251.28-29.08 250.38-29.02Q249.48-28.96 249-28.80Q248.52-28.64 248.38-28.42Q248.24-28.20 248.24-27.84L248.24-27.84L248.24-6.44Q248.24-5.16 248.42-4.24Q248.60-3.32 249.14-2.74Q249.68-2.16 250.70-1.86Q251.72-1.56 253.40-1.52L253.40-1.52L253.40 0L238.28 0L238.28-1.52Q239.96-1.56 241-1.86Q242.04-2.16 242.58-2.74Q243.12-3.32 243.30-4.24Q243.48-5.16 243.48-6.44L243.48-6.44L243.48-27.84Q243.48-28.20 243.34-28.42Q243.20-28.64 242.78-28.80Q242.36-28.96 241.60-29.02Q240.84-29.08 239.56-29.08L239.56-29.08Q238-29.08 236.66-28.96Q235.32-28.84 234.34-28.26Q233.36-27.68 232.76-26.48Q232.16-25.28 232.12-23.16L232.12-23.16L230.64-23.16L230.64-30.80L260.84-30.80Z M274.32-28.40L274.32-16.92Q276.48-16.92 277.94-17.18Q279.40-17.44 280.26-18Q281.12-18.56 281.50-19.44Q281.88-20.32 281.88-21.52L281.88-21.52L283.28-21.52L283.28-10.60L281.88-10.60Q281.88-11.80 281.54-12.68Q281.20-13.56 280.34-14.14Q279.48-14.72 278.02-15.02Q276.56-15.32 274.32-15.32L274.32-15.32L274.32-6.28Q274.32-4.96 274.64-4.10Q274.96-3.24 275.74-2.70Q276.52-2.16 277.80-1.94Q279.08-1.72 280.96-1.72L280.96-1.72Q283.08-1.72 284.56-2.02Q286.04-2.32 287.04-3.04Q288.04-3.76 288.64-4.94Q289.24-6.12 289.64-7.88L289.64-7.88L291.16-7.88L290.56 0L265.72 0L265.72-1.52Q267.12-1.56 267.98-1.76Q268.84-1.96 269.32-2.44Q269.80-2.92 269.96-3.80Q270.12-4.68 270.12-6.08L270.12-6.08L270.12-24.72Q270.12-26.12 269.98-26.98Q269.84-27.84 269.42-28.34Q269-28.84 268.20-29.02Q267.40-29.20 266.12-29.28L266.12-29.28L266.12-30.80L289.24-30.80L289.60-23.76L288.20-23.76Q287.96-25.36 287.42-26.38Q286.88-27.40 285.94-28Q285-28.60 283.56-28.84Q282.12-29.08 280.08-29.08L280.08-29.08L275-29.08Q274.32-29.08 274.32-28.40L274.32-28.40ZM277.48-34L275.08-34L280.28-37.08Q281.40-37.76 282.18-38.08Q282.96-38.40 283.76-38.40L283.76-38.40Q284.44-38.40 284.86-38.04Q285.28-37.68 285.28-37L285.28-37Q285.28-36.36 284.46-35.90Q283.64-35.44 282.28-35.12L282.28-35.12L277.48-34Z M297.88-0.44L297.28-9.40L298.76-9.40Q299.04-7.60 299.82-6.16Q300.60-4.72 301.78-3.72Q302.96-2.72 304.50-2.18Q306.04-1.64 307.84-1.64L307.84-1.64Q310.80-1.64 312.52-3.04Q314.24-4.44 314.24-6.84L314.24-6.84Q314.24-7.84 313.90-8.68Q313.56-9.52 312.76-10.30Q311.96-11.08 310.62-11.84Q309.28-12.60 307.24-13.48L307.24-13.48Q304.76-14.56 303.08-15.56Q301.40-16.56 300.40-17.64Q299.40-18.72 298.98-19.94Q298.56-21.16 298.56-22.72L298.56-22.72Q298.56-24.56 299.22-26.12Q299.88-27.68 301.08-28.82Q302.28-29.96 303.92-30.58Q305.56-31.20 307.52-31.20L307.52-31.20Q309.28-31.20 310.80-30.64Q312.32-30.08 313.88-28.84L313.88-28.84L314.92-30.64L315.84-30.64L316.28-22.68L314.80-22.68Q313.84-25.96 312.02-27.56Q310.20-29.16 307.64-29.16L307.64-29.16Q305.20-29.16 303.76-27.96Q302.32-26.76 302.32-24.72L302.32-24.72Q302.32-23.76 302.64-22.98Q302.96-22.20 303.68-21.50Q304.40-20.80 305.56-20.10Q306.72-19.40 308.44-18.64L308.44-18.64Q311.40-17.32 313.36-16.18Q315.32-15.04 316.48-13.90Q317.64-12.76 318.12-11.50Q318.60-10.24 318.60-8.68L318.60-8.68Q318.60-6.68 317.80-5Q317.00-3.32 315.56-2.12Q314.12-0.92 312.12-0.26Q310.12 0.40 307.72 0.40L307.72 0.40Q305.44 0.40 303.62-0.24Q301.80-0.88 299.92-2.40L299.92-2.40L298.80-0.44L297.88-0.44Z M338.20-9.92L325.84-9.92L325.84-13.24L338.20-13.24L338.20-9.92Z M349.08 1.72L349.08-24.72Q349.08-26.12 348.94-26.98Q348.80-27.84 348.38-28.34Q347.96-28.84 347.16-29.02Q346.36-29.20 345.08-29.28L345.08-29.28L345.08-30.80L357.24-30.80L357.24-29.28Q355.96-29.24 355.18-29.04Q354.40-28.84 353.98-28.32Q353.56-27.80 353.42-26.88Q353.28-25.96 353.28-24.44L353.28-24.44L353.28 0.08Q353.28 5.12 351.16 7.76Q349.04 10.40 344.96 10.40L344.96 10.40Q342.20 10.40 340.54 9.34Q338.88 8.28 338.88 6.52L338.88 6.52Q338.88 5.48 339.42 4.94Q339.96 4.40 340.92 4.40L340.92 4.40Q341.68 4.40 342.14 4.78Q342.60 5.16 343.20 6.28L343.20 6.28Q343.88 7.56 344.38 8.02Q344.88 8.48 345.68 8.48L345.68 8.48Q347.32 8.48 348.20 6.72Q349.08 4.96 349.08 1.72L349.08 1.72Z M389.92-20.48L389.92-12.40Q389.92-9.24 389.30-6.84Q388.68-4.44 387.30-2.84Q385.92-1.24 383.72-0.42Q381.52 0.40 378.40 0.40L378.40 0.40Q375.44 0.40 373.24-0.18Q371.04-0.76 369.56-2.10Q368.08-3.44 367.36-5.60Q366.64-7.76 366.64-10.92L366.64-10.92L366.64-21.48Q366.64-24.44 366.50-26.04Q366.36-27.64 365.68-28.40L365.68-28.40Q365.20-28.92 364.38-29.10Q363.56-29.28 362.20-29.28L362.20-29.28L362.20-30.80L375.84-30.80L375.84-29.28Q374.48-29.28 373.64-29.12Q372.80-28.96 372.32-28.32L372.32-28.32Q371.76-27.60 371.60-26.02Q371.44-24.44 371.44-21.48L371.44-21.48L371.44-10.60Q371.44-8.56 371.86-6.98Q372.28-5.40 373.24-4.30Q374.20-3.20 375.74-2.64Q377.28-2.08 379.52-2.08L379.52-2.08Q383.52-2.08 385.52-4.30Q387.52-6.52 387.52-10.84L387.52-10.84L387.52-20.48Q387.52-24.04 387.24-25.88Q386.96-27.72 386.20-28.48L386.20-28.48Q385.64-29 384.80-29.14Q383.96-29.28 382.72-29.28L382.72-29.28L382.72-30.80L394.32-30.80L394.32-29.28Q393.04-29.28 392.22-29.08Q391.40-28.88 390.92-28.20L390.92-28.20Q390.32-27.36 390.12-25.58Q389.92-23.80 389.92-20.48L389.92-20.48Z M423.80-23.08L423.80-23.08Q423.80-19.88 421.88-17.76Q419.96-15.64 415.76-14.92L415.76-14.92L424.60-4.28Q425.68-2.96 426.98-2.38Q428.28-1.80 430.08-1.52L430.08-1.52L430.08 0L422.36 0L412.56-12.56Q412.04-13.24 411.58-13.64Q411.12-14.04 410.62-14.26Q410.12-14.48 409.46-14.54Q408.80-14.60 407.88-14.60L407.88-14.60L407.88-6.28Q407.88-4.80 408.06-3.86Q408.24-2.92 408.82-2.40Q409.40-1.88 410.50-1.70Q411.60-1.52 413.40-1.52L413.40-1.52L413.40 0L399.28 0L399.28-1.52Q400.68-1.56 401.54-1.76Q402.40-1.96 402.88-2.44Q403.36-2.92 403.52-3.80Q403.68-4.68 403.68-6.08L403.68-6.08L403.68-24.72Q403.68-26.12 403.54-26.98Q403.40-27.84 402.98-28.34Q402.56-28.84 401.76-29.02Q400.96-29.20 399.68-29.28L399.68-29.28L399.68-30.80L412.24-30.80Q417.76-30.80 420.78-28.76Q423.80-26.72 423.80-23.08ZM407.88-28.24L407.88-16.60L410.72-16.60Q414.72-16.60 416.66-18.06Q418.60-19.52 418.60-22.88L418.60-22.88Q418.60-26.12 417.06-27.52Q415.52-28.92 412.24-28.92L412.24-28.92L408.56-28.92Q407.88-28.92 407.88-28.24L407.88-28.24Z M441.40-23.24L441.40-7.56Q441.40-5.56 441.56-4.40Q441.72-3.24 442.18-2.60Q442.64-1.96 443.50-1.76Q444.36-1.56 445.76-1.52L445.76-1.52L445.76 0L432.80 0L432.80-1.52Q434.20-1.56 435.06-1.78Q435.92-2 436.40-2.60Q436.88-3.20 437.04-4.30Q437.20-5.40 437.20-7.28L437.20-7.28L437.20-23.52Q437.20-25.20 437.06-26.30Q436.92-27.40 436.50-28.04Q436.08-28.68 435.28-28.94Q434.48-29.20 433.20-29.28L433.20-29.28L433.20-30.80L445.36-30.80L445.36-29.28Q444.08-29.24 443.30-28.96Q442.52-28.68 442.10-28.02Q441.68-27.36 441.54-26.20Q441.40-25.04 441.40-23.24L441.40-23.24Z M466.76 0L451.12 0L451.12-1.52Q452.64-1.56 453.58-1.74Q454.52-1.92 455.04-2.42Q455.56-2.92 455.74-3.78Q455.92-4.64 455.92-6.08L455.92-6.08L455.92-24.72Q455.92-26.12 455.78-26.98Q455.64-27.84 455.22-28.34Q454.80-28.84 454-29.02Q453.20-29.20 451.92-29.28L451.92-29.28L451.92-30.80L465.96-30.80Q469.56-30.80 472.62-29.60Q475.68-28.40 477.90-26.28Q480.12-24.16 481.36-21.24Q482.60-18.32 482.60-14.88L482.60-14.88Q482.60-11.60 481.44-8.86Q480.28-6.12 478.18-4.16Q476.08-2.20 473.16-1.10Q470.24 0 466.76 0L466.76 0ZM465.88-28.84L460.80-28.84Q460.12-28.84 460.12-28.16L460.12-28.16L460.12-6.52Q460.12-1.96 466.08-1.96L466.08-1.96Q471.56-1.96 474.48-5.22Q477.40-8.48 477.40-14.80L477.40-14.80Q477.40-18.12 476.60-20.72Q475.80-23.32 474.30-25.12Q472.80-26.92 470.68-27.88Q468.56-28.84 465.88-28.84L465.88-28.84Z M496.84-23.24L496.84-7.56Q496.84-5.56 497.00-4.40Q497.16-3.24 497.62-2.60Q498.08-1.96 498.94-1.76Q499.80-1.56 501.20-1.52L501.20-1.52L501.20 0L488.24 0L488.24-1.52Q489.64-1.56 490.50-1.78Q491.36-2 491.84-2.60Q492.32-3.20 492.48-4.30Q492.64-5.40 492.64-7.28L492.64-7.28L492.64-23.52Q492.64-25.20 492.50-26.30Q492.36-27.40 491.94-28.04Q491.52-28.68 490.72-28.94Q489.92-29.20 488.64-29.28L488.64-29.28L488.64-30.80L500.80-30.80L500.80-29.28Q499.52-29.24 498.74-28.96Q497.96-28.68 497.54-28.02Q497.12-27.36 496.98-26.20Q496.84-25.04 496.84-23.24L496.84-23.24Z M523.52-31.20L523.52-31.20Q527.04-31.20 530.08-29.96Q533.12-28.72 535.36-26.56Q537.60-24.40 538.88-21.46Q540.16-18.52 540.16-15.12L540.16-15.12Q540.16-11.36 538.62-8.26Q537.08-5.16 534.52-2.92L534.52-2.92Q532.84-1.48 530.76-0.50Q528.68 0.48 526.40 1.32L526.40 1.32Q525.32 1.76 524.30 2.24Q523.28 2.72 522.44 3.36L522.44 3.36L522.44 3.52Q522.68 3.48 523.10 3.46Q523.52 3.44 523.84 3.44L523.84 3.44Q525.64 3.44 527.20 3.90Q528.76 4.36 530.24 4.94Q531.72 5.52 533.20 5.98Q534.68 6.44 536.32 6.44L536.32 6.44Q538.20 6.44 539.16 5.64Q540.12 4.84 540.72 2.88L540.72 2.88L541.72 2.88Q541.80 3.24 541.84 3.68Q541.88 4.12 541.88 4.56L541.88 4.56Q541.88 5.84 541.34 6.90Q540.80 7.96 539.86 8.74Q538.92 9.52 537.64 9.96Q536.36 10.40 534.88 10.40L534.88 10.40Q532.64 10.40 530.74 9.54Q528.84 8.68 527.14 7.66Q525.44 6.64 523.88 5.78Q522.32 4.92 520.80 4.92L520.80 4.92Q519.76 4.92 519.12 5.32Q518.48 5.72 517.96 6.22Q517.44 6.72 516.98 7.12Q516.52 7.52 515.84 7.52L515.84 7.52Q514.68 7.52 514.68 6.52L514.68 6.52Q514.68 6.24 514.76 6.04Q514.84 5.84 515.10 5.58Q515.36 5.32 515.88 4.98Q516.40 4.64 517.32 4.12L517.32 4.12L522.52 1.16Q519.16 1.04 516.28-0.26Q513.40-1.56 511.32-3.74Q509.24-5.92 508.06-8.82Q506.88-11.72 506.88-15.04L506.88-15.04Q506.88-18.48 508.16-21.44Q509.44-24.40 511.68-26.56Q513.92-28.72 516.96-29.96Q520.00-31.20 523.52-31.20ZM523.52-0.80L523.52-0.80Q526.16-0.80 528.26-1.80Q530.36-2.80 531.86-4.66Q533.36-6.52 534.16-9.14Q534.96-11.76 534.96-15.04L534.96-15.04Q534.96-18.24 534.16-20.82Q533.36-23.40 531.88-25.22Q530.40-27.04 528.28-28.02Q526.16-29 523.52-29L523.52-29Q520.88-29 518.76-28.02Q516.64-27.04 515.16-25.22Q513.68-23.40 512.88-20.82Q512.08-18.24 512.08-15.04L512.08-15.04Q512.08-11.76 512.88-9.14Q513.68-6.52 515.16-4.66Q516.64-2.80 518.76-1.80Q520.88-0.80 523.52-0.80Z M572.92-20.48L572.92-12.40Q572.92-9.24 572.30-6.84Q571.68-4.44 570.30-2.84Q568.92-1.24 566.72-0.42Q564.52 0.40 561.40 0.40L561.40 0.40Q558.44 0.40 556.24-0.18Q554.04-0.76 552.56-2.10Q551.08-3.44 550.36-5.60Q549.64-7.76 549.64-10.92L549.64-10.92L549.64-21.48Q549.64-24.44 549.50-26.04Q549.36-27.64 548.68-28.40L548.68-28.40Q548.20-28.92 547.38-29.10Q546.56-29.28 545.20-29.28L545.20-29.28L545.20-30.80L558.84-30.80L558.84-29.28Q557.48-29.28 556.64-29.12Q555.80-28.96 555.32-28.32L555.32-28.32Q554.76-27.60 554.60-26.02Q554.44-24.44 554.44-21.48L554.44-21.48L554.44-10.60Q554.44-8.56 554.86-6.98Q555.28-5.40 556.24-4.30Q557.20-3.20 558.74-2.64Q560.28-2.08 562.52-2.08L562.52-2.08Q566.52-2.08 568.52-4.30Q570.52-6.52 570.52-10.84L570.52-10.84L570.52-20.48Q570.52-24.04 570.24-25.88Q569.96-27.72 569.20-28.48L569.20-28.48Q568.64-29 567.80-29.14Q566.96-29.28 565.72-29.28L565.72-29.28L565.72-30.80L577.32-30.80L577.32-29.28Q576.04-29.28 575.22-29.08Q574.40-28.88 573.92-28.20L573.92-28.20Q573.32-27.36 573.12-25.58Q572.92-23.80 572.92-20.48L572.92-20.48Z M590.88-28.40L590.88-16.92Q593.04-16.92 594.50-17.18Q595.96-17.44 596.82-18Q597.68-18.56 598.06-19.44Q598.44-20.32 598.44-21.52L598.44-21.52L599.84-21.52L599.84-10.60L598.44-10.60Q598.44-11.80 598.10-12.68Q597.76-13.56 596.90-14.14Q596.04-14.72 594.58-15.02Q593.12-15.32 590.88-15.32L590.88-15.32L590.88-6.28Q590.88-4.96 591.20-4.10Q591.52-3.24 592.30-2.70Q593.08-2.16 594.36-1.94Q595.64-1.72 597.52-1.72L597.52-1.72Q599.64-1.72 601.12-2.02Q602.60-2.32 603.60-3.04Q604.60-3.76 605.20-4.94Q605.80-6.12 606.20-7.88L606.20-7.88L607.72-7.88L607.12 0L582.28 0L582.28-1.52Q583.68-1.56 584.54-1.76Q585.40-1.96 585.88-2.44Q586.36-2.92 586.52-3.80Q586.68-4.68 586.68-6.08L586.68-6.08L586.68-24.72Q586.68-26.12 586.54-26.98Q586.40-27.84 585.98-28.34Q585.56-28.84 584.76-29.02Q583.96-29.20 582.68-29.28L582.68-29.28L582.68-30.80L605.80-30.80L606.16-23.76L604.76-23.76Q604.52-25.36 603.98-26.38Q603.44-27.40 602.50-28Q601.56-28.60 600.12-28.84Q598.68-29.08 596.64-29.08L596.64-29.08L591.56-29.08Q590.88-29.08 590.88-28.40L590.88-28.40Z M614.44-0.44L613.84-9.40L615.32-9.40Q615.60-7.60 616.38-6.16Q617.16-4.72 618.34-3.72Q619.52-2.72 621.06-2.18Q622.60-1.64 624.40-1.64L624.40-1.64Q627.36-1.64 629.08-3.04Q630.80-4.44 630.80-6.84L630.80-6.84Q630.80-7.84 630.46-8.68Q630.12-9.52 629.32-10.30Q628.52-11.08 627.18-11.84Q625.84-12.60 623.80-13.48L623.80-13.48Q621.32-14.56 619.64-15.56Q617.96-16.56 616.96-17.64Q615.96-18.72 615.54-19.94Q615.12-21.16 615.12-22.72L615.12-22.72Q615.12-24.56 615.78-26.12Q616.44-27.68 617.64-28.82Q618.84-29.96 620.48-30.58Q622.12-31.20 624.08-31.20L624.08-31.20Q625.84-31.20 627.36-30.64Q628.88-30.08 630.44-28.84L630.44-28.84L631.48-30.64L632.40-30.64L632.84-22.68L631.36-22.68Q630.40-25.96 628.58-27.56Q626.76-29.16 624.20-29.16L624.20-29.16Q621.76-29.16 620.32-27.96Q618.88-26.76 618.88-24.72L618.88-24.72Q618.88-23.76 619.20-22.98Q619.52-22.20 620.24-21.50Q620.96-20.80 622.12-20.10Q623.28-19.40 625-18.64L625-18.64Q627.96-17.32 629.92-16.18Q631.88-15.04 633.04-13.90Q634.20-12.76 634.68-11.50Q635.16-10.24 635.16-8.68L635.16-8.68Q635.16-6.68 634.36-5Q633.56-3.32 632.12-2.12Q630.68-0.92 628.68-0.26Q626.68 0.40 624.28 0.40L624.28 0.40Q622 0.40 620.18-0.24Q618.36-0.88 616.48-2.40L616.48-2.40L615.36-0.44L614.44-0.44Z M642.00-2.20L642.00-2.20Q642.00-3.32 642.76-4.08Q643.52-4.84 644.60-4.84L644.60-4.84Q645.72-4.84 646.48-4.08Q647.24-3.32 647.24-2.20L647.24-2.20Q647.24-1.12 646.48-0.36Q645.72 0.40 644.60 0.40L644.60 0.40Q643.52 0.40 642.76-0.36Q642.00-1.12 642.00-2.20Z M662.32-14.52L662.32-6.36Q662.32-4.84 662.50-3.90Q662.68-2.96 663.28-2.46Q663.88-1.96 664.98-1.76Q666.08-1.56 667.88-1.52L667.88-1.52L667.88 0L653.72 0L653.72-1.52Q655.12-1.56 655.98-1.76Q656.84-1.96 657.32-2.44Q657.80-2.92 657.96-3.80Q658.12-4.68 658.12-6.08L658.12-6.08L658.12-24.72Q658.12-26.12 657.98-26.98Q657.84-27.84 657.42-28.34Q657-28.84 656.20-29.02Q655.40-29.20 654.12-29.28L654.12-29.28L654.12-30.80L677.24-30.80L677.68-23.16L676.28-23.16Q676.04-24.88 675.52-25.98Q675-27.08 674.06-27.72Q673.12-28.36 671.68-28.62Q670.24-28.88 668.08-28.88L668.08-28.88L663-28.88Q662.32-28.88 662.32-28.20L662.32-28.20L662.32-16.12Q664.24-16.12 665.62-16.34Q667-16.56 667.90-17.12Q668.80-17.68 669.28-18.64Q669.76-19.60 669.88-21.12L669.88-21.12L671.28-21.12L671.28-9.40L669.88-9.40Q669.68-10.92 669.24-11.92Q668.80-12.92 667.94-13.48Q667.08-14.04 665.72-14.28Q664.36-14.52 662.32-14.52L662.32-14.52Z M707.04-23.08L707.04-23.08Q707.04-19.88 705.12-17.76Q703.20-15.64 699.00-14.92L699.00-14.92L707.84-4.28Q708.92-2.96 710.22-2.38Q711.52-1.80 713.32-1.52L713.32-1.52L713.32 0L705.60 0L695.80-12.56Q695.28-13.24 694.82-13.64Q694.36-14.04 693.86-14.26Q693.36-14.48 692.70-14.54Q692.04-14.60 691.12-14.60L691.12-14.60L691.12-6.28Q691.12-4.80 691.30-3.86Q691.48-2.92 692.06-2.40Q692.64-1.88 693.74-1.70Q694.84-1.52 696.64-1.52L696.64-1.52L696.64 0L682.52 0L682.52-1.52Q683.92-1.56 684.78-1.76Q685.64-1.96 686.12-2.44Q686.60-2.92 686.76-3.80Q686.92-4.68 686.92-6.08L686.92-6.08L686.92-24.72Q686.92-26.12 686.78-26.98Q686.64-27.84 686.22-28.34Q685.80-28.84 685.00-29.02Q684.20-29.20 682.92-29.28L682.92-29.28L682.92-30.80L695.48-30.80Q701.00-30.80 704.02-28.76Q707.04-26.72 707.04-23.08ZM691.12-28.24L691.12-16.60L693.96-16.60Q697.96-16.60 699.90-18.06Q701.84-19.52 701.84-22.88L701.84-22.88Q701.84-26.12 700.30-27.52Q698.76-28.92 695.48-28.92L695.48-28.92L691.80-28.92Q691.12-28.92 691.12-28.24L691.12-28.24Z"/></g>
</svg>
</g><g opacity="1" transform="rotate(0 342.5 311.1704)">
<svg width="157.4215" height="1.7375" x="342.5" y="311.1704" version="1.1" preserveAspectRatio="none" viewBox="0 0 157.4215 1.7375">
  <rect x="0" y="0" width="157.4215" height="1.7375" class="aYLqQhLpe-fillColor aYLqQhLpe-strokeColor-str" style="stroke-width:0;" rx="0px" ry="0px" />
</svg>
</g></svg>